<svg xmlns="http://www.w3.org/2000/svg" xmlns:xlink="http://www.w3.org/1999/xlink" viewbox="0 0 204 223.684"><defs><style>.a{fill:#fff;}.b{fill:#362d2c;}.c{mask:url(#a);}.d{fill:#eeb058;}.e{fill:#f9dd4e;}.f{fill:#1a1a1a;}.g{fill:#e6e6e6;}.h{fill:#ccc;}.i{fill:none;stroke:blue;stroke-miterlimit:10;}</style><mask id="a" x="0" y="0" width="204" height="223.684" maskUnits="userSpaceOnUse"><g transform="translate(12 -18)"><path class="a" d="M142,18H38A10,10,0,0,0,28,28v72a62,62,0,0,0,124,0V28A10,10,0,0,0,142,18Z"/></g></mask></defs><title>missionpatch_tc-ops</title><path class="b" d="M90,155a55.062,55.062,0,0,0,55-55V28a3,3,0,0,0-3-3H38a3,3,0,0,0-3,3v72.089A55.063,55.063,0,0,0,90,155Z" transform="translate(12 -18)"/><g class="c"><path class="d" d="M175.05,86.858l-79-34.821a15,15,0,0,0-12.1,0l-79,34.821A15,15,0,0,0-4,100.584v22.1a15,15,0,0,0,20.4,13.994l73.6-28.4,73.6,28.4A15,15,0,0,0,184,122.682v-22.1A15,15,0,0,0,175.05,86.858Z" transform="translate(12 -18)"/><path class="e" d="M180.4,116.152l-79-54.821a20,20,0,0,0-22.8,0l-79,54.821A20,20,0,0,0-9,132.584v2.1a20,20,0,0,0,27.605,18.5L90,123.825l71.4,29.354a20,20,0,0,0,27.6-18.5v-2.1A20,20,0,0,0,180.4,116.152Z" transform="translate(12 -18)"/><path class="a" d="M183.636,158.954l-79-84.822a20,20,0,0,0-29.272,0l-79,84.822A20,20,0,0,0-9,172.585v2.1a20,20,0,0,0,32.407,15.687L90,137.7l66.593,52.67A20,20,0,0,0,189,174.682v-2.1A20,20,0,0,0,183.636,158.954Z" transform="translate(12 -18)"/><path class="f" d="M187.785,203.313l-79-111.822a23,23,0,0,0-37.57,0l-79,111.822A23.006,23.006,0,0,0-12,216.585v2.1a23,23,0,0,0,40.242,15.222L90,163.952l61.758,69.953A23,23,0,0,0,192,218.683v-2.1A23.006,23.006,0,0,0,187.785,203.313Z" transform="translate(12 -18)"/></g><path class="a" d="M88.591,105.21a1.994,1.994,0,0,0,1.409,3.4,2.043,2.043,0,0,0,1.994-1.993,1.994,1.994,0,0,0-3.4-1.41Zm0,0" transform="translate(12 -18)"/><path class="a" d="M96.121,99.319h.005a20.592,20.592,0,0,0-6.12-9.1h-.012q-.6.516-1.159,1.074a20.566,20.566,0,0,0-4.963,8.025h0a22.632,22.632,0,0,0,12.253,0Z" transform="translate(12 -18)"/><path class="a" d="M96.948,120.577l6.313,0a7.272,7.272,0,0,0-5.56-6.433Zm0,0" transform="translate(12 -18)"/><path class="a" d="M78.845,116.068a7.26,7.26,0,0,0-2.106,4.5l6.314,0L82.3,114.14a7.212,7.212,0,0,0-3.454,1.928Zm0,0" transform="translate(12 -18)"/><path class="a" d="M90,123.8a24.245,24.245,0,0,1-3.439-.255v2.229a2,2,0,0,0,1.994,1.994h2.886a2,2,0,0,0,1.994-2v-2.227A24.341,24.341,0,0,1,90,123.8Z" transform="translate(12 -18)"/><path class="e" d="M93.323,135.2a3.323,3.323,0,1,0-6.646,0c0,1.289,1.858,4.678,3.323,7.02,1.467-2.341,3.323-5.732,3.323-7.019Zm0,0" transform="translate(12 -18)"/><path class="a" d="M98.459,131.671a.665.665,0,0,1-1.135-.47v-3.987a.665.665,0,0,1,1.329,0V131.2a.664.664,0,0,1-.194.47Zm0,0" transform="translate(12 -18)"/><path class="a" d="M102.688,128.382a.665.665,0,0,1-1.135-.47v-3.987a.665.665,0,0,1,1.329,0v3.987a.664.664,0,0,1-.194.47Zm0,0" transform="translate(12 -18)"/><path class="a" d="M98.458,134.994a.664.664,0,0,1-1.134-.47v-.665a.665.665,0,1,1,1.329,0v.664a.665.665,0,0,1-.2.47Zm0,0" transform="translate(12 -18)"/><path class="a" d="M82.012,132.141a.664.664,0,0,1-1.134-.47v-3.987a.665.665,0,0,1,1.33,0v3.987a.661.661,0,0,1-.195.47Zm0,0" transform="translate(12 -18)"/><path class="a" d="M78.253,128.382a.664.664,0,0,1-1.134-.47v-3.987a.665.665,0,0,1,1.329,0v3.987a.662.662,0,0,1-.194.47Zm0,0" transform="translate(12 -18)"/><path class="a" d="M82.012,135.464a.665.665,0,0,1-1.135-.47v-.665a.665.665,0,1,1,1.329,0v.664a.664.664,0,0,1-.194.47Zm0,0" transform="translate(12 -18)"/><path class="a" d="M96.524,100.648l-13.043.005a20.575,20.575,0,0,0-.533,7.6l1.588,13.573a24.084,24.084,0,0,0,10.928,0l1.589-13.575A20.6,20.6,0,0,0,96.524,100.648Zm-5.859,18.207a.665.665,0,1,1-1.329,0v-.664a.665.665,0,0,1,1.329,0v.663Zm0-3.323a.665.665,0,0,1-1.329,0v-2.658a.665.665,0,0,1,1.329,0Zm-.018-5.655a3.324,3.324,0,1,1,2.674-3.257v0A3.322,3.322,0,0,1,90.648,109.877Z" transform="translate(12 -18)"/><path class="g" d="M96.524,100.648l-6.53,0V103.3a3.317,3.317,0,0,1,3.328,3.323v0a3.313,3.313,0,0,1-3.329,3.321v2.283H90a.663.663,0,0,1,.664.652v2.658a.664.664,0,0,1-.665.653h-.007v1.354H90a.664.664,0,0,1,.665.653v.663a.663.663,0,0,1-.663.665h-.008v2.935H90a25.3,25.3,0,0,0,5.461-.627l1.589-13.575A20.6,20.6,0,0,0,96.524,100.648Z" transform="translate(12 -18)"/><path class="d" d="M93.323,135.2a3.321,3.321,0,0,0-3.329-3.337v10.347l.006.009C91.467,139.881,93.323,136.49,93.323,135.2Z" transform="translate(12 -18)"/><path class="g" d="M90,123.8l-.009.256v3.712h1.449a2,2,0,0,0,1.994-2v-2.227A24.341,24.341,0,0,1,90,123.8Z" transform="translate(12 -18)"/><path class="g" d="M91.994,106.62a1.98,1.98,0,0,0-2-1.989v3.981H90A2.043,2.043,0,0,0,91.994,106.62Z" transform="translate(12 -18)"/><path class="g" d="M90,100.166a23.141,23.141,0,0,0,6.126-.845l-.008,0h.005a20.592,20.592,0,0,0-6.12-9.1h-.012v9.944Z" transform="translate(12 -18)"/><path class="g" d="M101.964,128.526a.664.664,0,0,0,.918-.614v-3.987a.665.665,0,0,0-1.329,0v3.987A.668.668,0,0,0,101.964,128.526Z" transform="translate(12 -18)"/><path class="g" d="M97.324,134.524a.665.665,0,0,0,1.329,0v-.664a.665.665,0,1,0-1.329,0Z" transform="translate(12 -18)"/><path class="g" d="M97.7,114.14l-.753,6.437,6.313,0A7.272,7.272,0,0,0,97.7,114.14Z" transform="translate(12 -18)"/><path class="g" d="M97.735,131.815a.664.664,0,0,0,.918-.614v-3.987a.665.665,0,0,0-1.329,0V131.2A.664.664,0,0,0,97.735,131.815Z" transform="translate(12 -18)"/><path class="f" d="M95.464,121.827l1.589-13.575a20.6,20.6,0,0,0-.529-7.6l-2.931.18c.175.652.334,1.311.458,1.973a85.935,85.935,0,0,1,.663,19.182C94.988,121.93,95.245,121.876,95.464,121.827Z" transform="translate(12 -18)"/><path class="f" d="M96.129,99.321l-.008,0h.005a20.592,20.592,0,0,0-6.12-9.1h-.012s1.865,4.542,3.411,9.681A9.315,9.315,0,0,0,96.129,99.321Z" transform="translate(12 -18)"/><path class="h" d="M95.464,121.827l1.589-13.575a20.6,20.6,0,0,0-.529-7.6H94.5c.175.652.333,1.311.457,1.973,1.565,8.92-.241,19.34-.244,19.361C94.988,121.93,95.245,121.876,95.464,121.827Z" transform="translate(12 -18)"/><path class="h" d="M96.129,99.321l-.008,0h.005a20.592,20.592,0,0,0-6.12-9.1h-.012a45.735,45.735,0,0,1,4.254,9.538A18.984,18.984,0,0,0,96.129,99.321Z" transform="translate(12 -18)"/><path class="f" d="M96.524,100.653a57.5,57.5,0,0,0-13.043,0,24.1,24.1,0,0,0,13.043,0Z" transform="translate(12 -18)"/><path class="a" d="M74.738,104.249a15.7,15.7,0,0,0,2.745-.627,15.613,15.613,0,0,0-2.745-.628,23.085,23.085,0,0,0-.627-3.372,22.956,22.956,0,0,0-.628,3.372,15.613,15.613,0,0,0-2.745.628,15.7,15.7,0,0,0,2.745.627,22.969,22.969,0,0,0,.628,3.373A23.1,23.1,0,0,0,74.738,104.249Z" transform="translate(12 -18)"/><path class="a" d="M74.11,107.872c-.24,0-.386,0-.849-3.407-2.773-.464-2.773-.616-2.773-.843s0-.379,2.773-.845c.463-3.405.609-3.405.849-3.405s.388,0,.851,3.406c2.772.465,2.772.617,2.772.844s0,.379-2.772.843C74.5,107.872,74.351,107.872,74.11,107.872Zm-2.589-4.25c.524.118,1.291.263,2,.38l.182.03.025.184c.118.872.261,1.806.379,2.454.119-.647.263-1.582.38-2.454l.026-.184L74.7,104c.712-.117,1.48-.262,2-.38-.524-.119-1.292-.264-2-.381l-.181-.03-.026-.184c-.117-.872-.261-1.806-.38-2.453-.118.647-.261,1.581-.379,2.453l-.025.184-.182.03C72.812,103.358,72.045,103.5,71.521,103.622Z" transform="translate(12 -18)"/><path class="a" d="M107.375,106.671a13.683,13.683,0,0,0,2.4-.549,13.683,13.683,0,0,0-2.4-.549,20.124,20.124,0,0,0-.549-2.951,20.124,20.124,0,0,0-.549,2.951,13.683,13.683,0,0,0-2.4.549,13.683,13.683,0,0,0,2.4.549,20.124,20.124,0,0,0,.549,2.951A20.124,20.124,0,0,0,107.375,106.671Z" transform="translate(12 -18)"/><path class="a" d="M106.826,109.872c-.242,0-.366,0-.771-2.985-2.43-.408-2.43-.543-2.43-.765s0-.357,2.43-.766c.4-2.984.529-2.984.771-2.984s.365,0,.772,2.984c2.429.409,2.429.544,2.429.766s0,.357-2.429.765C107.191,109.872,107.067,109.872,106.826,109.872Zm-2.119-3.75c.453.1,1.061.211,1.611.3l.183.03.024.184c.092.687.2,1.423.3,1.974.1-.551.208-1.287.3-1.974l.025-.184.182-.03c.551-.091,1.158-.2,1.611-.3-.453-.1-1.06-.211-1.611-.3l-.182-.03-.025-.184c-.093-.687-.2-1.422-.3-1.974-.1.552-.209,1.287-.3,1.974l-.024.184-.183.03C105.768,105.911,105.16,106.024,104.707,106.122Z" transform="translate(12 -18)"/><path class="a" d="M101.016,94.384a7.888,7.888,0,0,0,1.372-.313,7.8,7.8,0,0,0-1.372-.314,11.478,11.478,0,0,0-.314-1.686,11.478,11.478,0,0,0-.314,1.686,7.8,7.8,0,0,0-1.372.314,7.888,7.888,0,0,0,1.372.313,11.491,11.491,0,0,0,.314,1.687A11.491,11.491,0,0,0,101.016,94.384Z" transform="translate(12 -18)"/><path class="a" d="M100.7,96.32c-.226,0-.3,0-.537-1.719-1.4-.239-1.4-.322-1.4-.531s0-.291,1.4-.529c.236-1.721.311-1.721.537-1.721s.3,0,.536,1.721c1.4.238,1.4.321,1.4.529s0,.292-1.4.531C101,96.32,100.929,96.32,100.7,96.32Zm-.659-2.25c.129.025.261.047.386.068l.181.03.026.184c.02.151.043.309.066.465.023-.156.045-.314.066-.465l.025-.184.182-.03c.125-.021.256-.043.385-.068-.129-.023-.26-.046-.385-.066l-.182-.03-.025-.184c-.021-.151-.043-.31-.066-.466-.023.156-.046.315-.066.466l-.026.184-.181.03C100.3,94.024,100.172,94.047,100.043,94.07Z" transform="translate(12 -18)"/><path class="e" d="M142,26a2,2,0,0,1,2,2v72a54,54,0,0,1-108,.061V28a2,2,0,0,1,2-2H142m0-8H38A10,10,0,0,0,28,28v72a62,62,0,0,0,124,0V28a10,10,0,0,0-10-10Z" transform="translate(12 -18)"/><path class="a" d="M142,23a5.006,5.006,0,0,1,5,5v72a57,57,0,0,1-114,.081V28a5.006,5.006,0,0,1,5-5H142m0-5H38A10,10,0,0,0,28,28v72a62,62,0,0,0,124,0V28a10,10,0,0,0-10-10Z" transform="translate(12 -18)"/><path class="i" d="M165,18" transform="translate(12 -18)"/><path class="a" d="M44.16,34.313H41.117V31.679h9.332v2.634H47.406V43H44.16Z" transform="translate(12 -18)"/><path class="a" d="M63.063,31.679h3.248V35.86h4.011V31.679h3.23V43h-3.23V38.495H66.311V43H63.063Z" transform="translate(12 -18)"/><path class="a" d="M87.323,31.679h3.264V43H87.323Z" transform="translate(12 -18)"/><path class="a" d="M104.51,31.679h3.281l3.094,4.436a21.44,21.44,0,0,1,1.308,2.091h.035c-.018-.085-.069-1.07-.069-1.972V31.679h2.924V43h-2.958l-3.468-4.879a19.382,19.382,0,0,1-1.24-1.887h-.034c0,.1.051.868.051,1.717V43H104.51Z" transform="translate(12 -18)"/><path class="a" d="M128.751,31.679H132v4.454l3.264-4.454h3.518l-3.858,5.184L138.882,43h-3.774L132,38.121V43h-3.247Z" transform="translate(12 -18)"/><path class="a" d="M126.189,50.052v1.416a.1.1,0,0,1-.033.078.114.114,0,0,1-.081.03H124.06a.109.109,0,0,0-.109.1v.534a.1.1,0,0,0,.109.09h2.015a.1.1,0,0,1,.078.033.112.112,0,0,1,.031.081v.726a.112.112,0,0,1-.031.081.1.1,0,0,1-.078.033h-2.951a.1.1,0,0,1-.114-.114V51.444a.368.368,0,0,1,.048-.126l.551-.552a.554.554,0,0,1,.1-.03.636.636,0,0,1,.107-.012h1.315a.112.112,0,0,0,.081-.033.114.114,0,0,0,.033-.081v-.486a.1.1,0,0,0-.033-.078.118.118,0,0,0-.081-.03H123.25a.109.109,0,0,1-.081-.033.106.106,0,0,1-.033-.081v-.738a.106.106,0,0,1,.033-.081.112.112,0,0,1,.081-.033h2.124a.449.449,0,0,1,.107.015,1.02,1.02,0,0,1,.109.033l.552.552a.518.518,0,0,1,.042.114v.144a.043.043,0,0,0,0,.024v.12Z" transform="translate(12 -18)"/><path class="a" d="M131.115,49.65a.682.682,0,0,1,.033.1.45.45,0,0,1,.015.108v2.58a.45.45,0,0,1-.015.108.682.682,0,0,1-.033.1l-.552.552a.34.34,0,0,1-.1.036.6.6,0,0,1-.11.012h-1.584a.558.558,0,0,1-.109-.012.339.339,0,0,1-.1-.036L128,52.65a.369.369,0,0,1-.036-.1.556.556,0,0,1-.012-.108V49.86a.556.556,0,0,1,.012-.108.369.369,0,0,1,.036-.1l.552-.552a.682.682,0,0,1,.1-.033.451.451,0,0,1,.109-.015h1.584a.486.486,0,0,1,.11.015.658.658,0,0,1,.1.033Zm-2.148,2.586h1.177V50.07h-1.177Z" transform="translate(12 -18)"/><path class="a" d="M134.234,49.164v3.972a.1.1,0,0,1-.113.114h-.828a.1.1,0,0,1-.114-.114V50.172c0-.016-.009-.023-.028-.021a.13.13,0,0,0-.062.033l-.294.228c-.024.02-.045.026-.064.015a.067.067,0,0,1-.026-.063v-.84a.222.222,0,0,1,.026-.1.283.283,0,0,1,.064-.081l.294-.228a.27.27,0,0,1,.1-.048.38.38,0,0,1,.108-.018h.828A.1.1,0,0,1,134.234,49.164Z" transform="translate(12 -18)"/><path class="a" d="M135.807,51.444a.34.34,0,0,1-.036-.105.6.6,0,0,1-.012-.111v-1.38a.415.415,0,0,1,.015-.1.491.491,0,0,1,.033-.093l.552-.552a.682.682,0,0,1,.1-.033.45.45,0,0,1,.108-.015H138.2v.006a.738.738,0,0,1,.168.042l.552.552a.682.682,0,0,1,.033.1.45.45,0,0,1,.015.108v3.276a.113.113,0,0,1-.115.114h-.833a.113.113,0,0,1-.114-.114v-.984a.11.11,0,0,0-.03-.078.107.107,0,0,0-.078-.03h-1.23a.45.45,0,0,1-.108-.015.583.583,0,0,1-.1-.033ZM137.949,50h-1.176v1.062h1.176Z" transform="translate(12 -18)"/><path class="a" d="M43.275,49.956a.113.113,0,0,1-.114.114H42.31a.113.113,0,0,0-.081.03.1.1,0,0,0-.034.078v2.958a.112.112,0,0,1-.03.081.1.1,0,0,1-.078.033h-.834a.111.111,0,0,1-.113-.114V50.178a.1.1,0,0,0-.109-.108h-.852a.114.114,0,0,1-.114-.114v-.792a.1.1,0,0,1,.114-.114h2.982a.114.114,0,0,1,.081.033.11.11,0,0,1,.033.081Z" transform="translate(12 -18)"/><path class="a" d="M45.905,50.1a.1.1,0,0,0-.033.078v1.944a.114.114,0,0,0,.033.081.112.112,0,0,0,.081.033h1.926a.114.114,0,0,1,.081.03.1.1,0,0,1,.033.078v.792a.106.106,0,0,1-.033.081.109.109,0,0,1-.081.033H45.627a.556.556,0,0,1-.108-.012.346.346,0,0,1-.1-.036l-.552-.552a.4.4,0,0,1-.036-.1.556.556,0,0,1-.012-.108V49.86a.556.556,0,0,1,.012-.108.4.4,0,0,1,.036-.1l.552-.552c.028-.012.058-.023.088-.033a.234.234,0,0,1,.068-.015h2.34a.112.112,0,0,1,.081.033.106.106,0,0,1,.033.081v.792a.106.106,0,0,1-.033.081.109.109,0,0,1-.081.033H45.986A.118.118,0,0,0,45.905,50.1Z" transform="translate(12 -18)"/><path class="a" d="M51.344,51.726a.113.113,0,0,1-.115.114h-1.3a.109.109,0,0,1-.081-.033.11.11,0,0,1-.033-.081v-.792a.1.1,0,0,1,.114-.114h1.3a.113.113,0,0,1,.115.114Z" transform="translate(12 -18)"/><path class="a" d="M56.6,49.65a1.031,1.031,0,0,1,.033.1.445.445,0,0,1,.014.108v2.58a.445.445,0,0,1-.014.108,1.031,1.031,0,0,1-.033.1l-.552.552a.346.346,0,0,1-.106.036.6.6,0,0,1-.111.012h-1.9a.558.558,0,0,1-.109-.012.323.323,0,0,1-.1-.036l-.553-.552a.339.339,0,0,1-.035-.1.494.494,0,0,1-.013-.108V49.86a.494.494,0,0,1,.013-.108.339.339,0,0,1,.035-.1l.553-.552a.63.63,0,0,1,.1-.033.451.451,0,0,1,.109-.015h1.9a.487.487,0,0,1,.111.015.673.673,0,0,1,.106.033Zm-1.015.42H54.176v2.166h1.409Z" transform="translate(12 -18)"/><path class="a" d="M61.592,49.65a.682.682,0,0,1,.033.1.455.455,0,0,1,.016.108v1.368a.494.494,0,0,1-.016.111.658.658,0,0,1-.033.105L61.04,52a.557.557,0,0,1-.1.033.5.5,0,0,1-.112.015H59.6a.113.113,0,0,0-.081.03.1.1,0,0,0-.034.078v.984a.1.1,0,0,1-.114.114h-.828a.1.1,0,0,1-.113-.114V49.164a.109.109,0,0,1,.032-.081.114.114,0,0,1,.081-.033h2.28a.5.5,0,0,1,.112.015.642.642,0,0,1,.1.033Zm-.972,1.416V50H59.444v1.062Z" transform="translate(12 -18)"/><path class="a" d="M66.354,51.426a.5.5,0,0,1,.014.108v.906a.5.5,0,0,1-.014.108.808.808,0,0,1-.034.1l-.551.552a.356.356,0,0,1-.106.036.6.6,0,0,1-.11.012H63.272a.1.1,0,0,1-.114-.114V52.41a.113.113,0,0,1,.114-.114h2.04a.118.118,0,0,0,.082-.03.1.1,0,0,0,.033-.078v-.5a.114.114,0,0,0-.033-.081.112.112,0,0,0-.082-.033H63.969a.566.566,0,0,1-.109-.012.52.52,0,0,1-.1-.03l-.552-.552a.472.472,0,0,1-.036-.108.556.556,0,0,1-.012-.108V49.86a.556.556,0,0,1,.012-.108.369.369,0,0,1,.036-.1l.552-.552a.682.682,0,0,1,.1-.033.458.458,0,0,1,.109-.015h2.153a.112.112,0,0,1,.081.033.106.106,0,0,1,.033.081V49.9a.106.106,0,0,1-.033.081.109.109,0,0,1-.081.033H64.208a.116.116,0,0,0-.081.03.1.1,0,0,0-.032.078v.486a.111.111,0,0,0,.113.114h1.345a.7.7,0,0,1,.11.012.546.546,0,0,1,.106.03l.551.552C66.332,51.35,66.343,51.386,66.354,51.426Z" transform="translate(12 -18)"/><path class="a" d="M50.968,126.24l.735.993-1.281,1.809c-.184.255-.394.507-.409.526l.008.01c.022-.01.333-.135.623-.237l2.085-.723.685.926-4.1,1.182-.642-.869Z" transform="translate(12 -18)"/><path class="a" d="M53.774,129.938l1.652,1.888-.7.612-.909-1.038-.452.395.8.917-.65.569-.8-.917-.506.443.937,1.07-.7.613-1.679-1.92Z" transform="translate(12 -18)"/><path class="a" d="M55.994,132.467l.834.8-.3,1.885a7.852,7.852,0,0,1-.179.852l.008.009c.017-.027.246-.289.466-.518l1.116-1.157.744.716-2.775,2.876-.752-.725.316-2.089a7.011,7.011,0,0,1,.146-.783l-.009-.009c-.024.026-.2.233-.407.449l-1.237,1.283-.743-.717Z" transform="translate(12 -18)"/><path class="a" d="M59.446,135.691l.885.739-2.56,3.069-.885-.738Z" transform="translate(12 -18)"/><path class="a" d="M61.339,137.281l.911.645-.766,2.236c-.087.247-.232.6-.242.622l.01.007c.019-.016.308-.268.517-.429l1.882-1.445.911.644-1.856,3.581-.955-.676.786-1.435c.145-.265.269-.493.293-.527l-.01-.008c-.029.031-.235.209-.459.389l-1.326,1.075-.926-.654.578-1.6c.089-.239.207-.53.223-.563l-.01-.007c-.024.034-.213.268-.385.462l-1.106,1.21-.833-.589Z" transform="translate(12 -18)"/><path class="a" d="M64.283,142.21l1.182-2.1,1,.563-1.143,2.03c-.276.492-.254.794.217,1.06.43.241.712.083.965-.368l1.154-2.051.916.515-1.122,1.994a1.572,1.572,0,0,1-2.387.7C64.012,143.966,63.729,143.193,64.283,142.21Z" transform="translate(12 -18)"/><path class="a" d="M67.532,145.455l.741-.53a1.571,1.571,0,0,0,.63.582c.3.141.493.108.571-.061.1-.228-.246-.411-.577-.828a1.257,1.257,0,0,1-.2-1.462,1.239,1.239,0,0,1,1.754-.492,2.034,2.034,0,0,1,1,.845l-.718.541a1.735,1.735,0,0,0-.581-.52c-.245-.113-.4-.1-.478.076-.1.218.165.387.477.744a1.234,1.234,0,0,1,.349,1.49c-.338.729-1.043.926-1.931.515A2.212,2.212,0,0,1,67.532,145.455Z" transform="translate(12 -18)"/><path class="a" d="M70.459,147.894c.257-.113.448-.206.534-.423.106-.268-.1-.439.031-.768a.59.59,0,0,1,.794-.313.634.634,0,0,1,.328.889,2.361,2.361,0,0,1-1.441,1.1Z" transform="translate(12 -18)"/><path class="a" d="M75.193,144.667l1.188.337.091,2.212c.01.314,0,.641,0,.666l.011,0c.012-.022.181-.311.348-.569l1.207-1.844,1.108.313-2.518,3.437-1.038-.294Z" transform="translate(12 -18)"/><path class="a" d="M79.77,145.887l1.127.234-.813,3.913-1.128-.234Z" transform="translate(12 -18)"/><path class="a" d="M81.94,146.344l1.417.192c1.553.211,2.173,1.09,2.018,2.233a2.037,2.037,0,0,1-2.592,1.726l-1.381-.187Zm1.054,3.264c.7.095,1.075-.242,1.174-.967a.921.921,0,0,0-.909-1.2l-.3-.041-.294,2.166Z" transform="translate(12 -18)"/><path class="a" d="M86.423,146.878l1.148.073-.254,3.984-1.148-.074Z" transform="translate(12 -18)"/><path class="a" d="M88.864,147.032l1.115-.02.707,2.255c.076.251.167.621.172.645h.013c.005-.023.089-.4.162-.65l.661-2.28,1.116-.019.623,3.983-1.17.022-.215-1.622c-.041-.3-.075-.557-.076-.6H91.96c-.006.042-.066.308-.14.585l-.432,1.651-1.134.02-.479-1.629c-.07-.244-.147-.549-.154-.585h-.012c0,.042-.012.343-.038.6l-.175,1.629-1.019.018Z" transform="translate(12 -18)"/><path class="a" d="M94.13,149.272l-.288-2.386,1.137-.137.278,2.309c.067.559.264.789.8.724.488-.058.622-.352.56-.864l-.281-2.333,1.041-.125.273,2.268a1.568,1.568,0,0,1-1.506,1.974C94.947,150.846,94.265,150.391,94.13,149.272Z" transform="translate(12 -18)"/><path class="a" d="M98.691,149.964l.284-.865a1.569,1.569,0,0,0,.851.1c.329-.066.46-.2.424-.385-.051-.247-.441-.186-.953-.327a1.255,1.255,0,0,1-1.028-1.057,1.238,1.238,0,0,1,1.123-1.433,2.029,2.029,0,0,1,1.3.091l-.259.86a1.734,1.734,0,0,0-.775-.076c-.264.054-.379.151-.34.344.048.235.362.215.823.317.563.124,1.021.3,1.162.993.159.788-.293,1.363-1.251,1.557A2.22,2.22,0,0,1,98.691,149.964Z" transform="translate(12 -18)"/><path class="a" d="M102.512,150.2a.845.845,0,0,0,.178-.655c-.073-.278-.338-.295-.429-.637a.589.589,0,0,1,.453-.723.635.635,0,0,1,.791.522,2.362,2.362,0,0,1-.5,1.742Z" transform="translate(12 -18)"/><path class="a" d="M104.416,144.787l1.16-.431,1.381,1.736c.2.248.379.519.393.54l.011,0c0-.024-.037-.358-.054-.665l-.115-2.206,1.081-.4,0,4.269-1.013.377Z" transform="translate(12 -18)"/><path class="a" d="M109.737,145.331l-1.046-2.166,1.032-.5,1.012,2.1c.245.508.506.661.993.426.442-.213.473-.535.25-1l-1.024-2.117.945-.457,1,2.058a1.57,1.57,0,0,1-.787,2.358C111.021,146.556,110.228,146.347,109.737,145.331Z" transform="translate(12 -18)"/><path class="a" d="M112.717,141.159l.993-.583,1.563,2.664,1.226-.719.459.781-2.219,1.3Z" transform="translate(12 -18)"/><path class="a" d="M116.437,141.287a2.109,2.109,0,0,1,.7-3.014,2.281,2.281,0,0,1,1.3-.5l.1.977a1.622,1.622,0,0,0-.88.3.977.977,0,0,0-.254,1.508c.4.57.915.808,1.481.414a1.268,1.268,0,0,0,.344-.344l-.3-.438-.526.368-.494-.708,1.415-.988,1.167,1.67a2.962,2.962,0,0,1-1.066,1.185A2.025,2.025,0,0,1,116.437,141.287Z" transform="translate(12 -18)"/><path class="a" d="M119.056,136.927l.9-.724,2.51,3.109-.9.724Z" transform="translate(12 -18)"/><path class="a" d="M120.988,135.364l.809-.768,2.046,1.184c.226.133.543.345.564.358l.009-.008c-.013-.022-.2-.354-.32-.59l-1.055-2.127.809-.769L127,135.159l-.848.807-1.256-1.051c-.232-.192-.432-.358-.461-.389l-.008.008c.024.034.158.272.292.526l.8,1.509-.822.782-1.455-.877c-.218-.133-.48-.3-.51-.328l-.008.009c.029.031.222.26.378.468l.973,1.319-.739.7Z" transform="translate(12 -18)"/><path class="a" d="M126.368,133.455l-1.829-1.566.746-.871,1.77,1.515c.428.367.73.4,1.082-.008.32-.374.219-.681-.173-1.017l-1.788-1.531.683-.8,1.739,1.488a1.573,1.573,0,0,1,.225,2.479A1.547,1.547,0,0,1,126.368,133.455Z" transform="translate(12 -18)"/><path class="a" d="M130.187,130.892l-.375-.83a1.571,1.571,0,0,0,.693-.5c.2-.272.2-.461.051-.571-.2-.148-.452.161-.923.4a1.258,1.258,0,0,1-1.474-.084,1.239,1.239,0,0,1-.141-1.816,2.028,2.028,0,0,1,1.021-.814l.391.809a1.754,1.754,0,0,0-.622.468c-.159.219-.178.367-.018.484.194.141.411-.086.82-.323a1.235,1.235,0,0,1,1.53-.053c.649.472.705,1.2.131,1.993A2.213,2.213,0,0,1,130.187,130.892Z" transform="translate(12 -18)"/></svg>